<svg xmlns="http://www.w3.org/2000/svg" width="800" height="450" viewBox="0 0 800 450" fill="none">
  <defs>
    <linearGradient id="g" x1="120" y1="92" x2="680" y2="360" gradientUnits="userSpaceOnUse">
      <stop stop-color="#6366F1" stop-opacity="0.95"/>
      <stop offset="1" stop-color="#22D3EE" stop-opacity="0.85"/>
    </linearGradient>
  </defs>
  <rect width="800" height="450" rx="28" fill="#0B1220"/>
  <rect x="92" y="88" width="616" height="274" rx="22" fill="#FFFFFF" fill-opacity="0.05" stroke="#FFFFFF" stroke-opacity="0.12"/>
  <rect x="92" y="88" width="616" height="54" rx="22" fill="#FFFFFF" fill-opacity="0.06"/>
  <g opacity="0.9">
    <circle cx="128" cy="115" r="7" fill="#FF6B6B" fill-opacity="0.9"/>
    <circle cx="152" cy="115" r="7" fill="#FFD93D" fill-opacity="0.9"/>
    <circle cx="176" cy="115" r="7" fill="#6BCB77" fill-opacity="0.9"/>
  </g>
  <rect x="214" y="104" width="430" height="22" rx="11" fill="#0B1220" fill-opacity="0.55" stroke="#FFFFFF" stroke-opacity="0.10"/>
  <rect x="130" y="170" width="240" height="150" rx="18" fill="url(#g)" fill-opacity="0.18" stroke="#FFFFFF" stroke-opacity="0.10"/>
  <rect x="400" y="170" width="270" height="22" rx="11" fill="#FFFFFF" fill-opacity="0.10"/>
  <rect x="400" y="206" width="220" height="18" rx="9" fill="#FFFFFF" fill-opacity="0.08"/>
  <rect x="400" y="236" width="260" height="18" rx="9" fill="#FFFFFF" fill-opacity="0.08"/>
  <rect x="400" y="266" width="190" height="18" rx="9" fill="#FFFFFF" fill-opacity="0.08"/>
  <rect x="400" y="300" width="160" height="32" rx="16" fill="url(#g)" fill-opacity="0.45"/>
</svg>
